<mxfile host="app.diagrams.net" modified="2023-09-20T11:37:34.285Z" agent="Mozilla/5.0 (Windows NT 10.0; Win64; x64) AppleWebKit/537.36 (KHTML, like Gecko) Chrome/117.0.0.0 Safari/537.36" etag="j6_tQdfOOmKpqrl1rJF4" version="21.7.5" type="github" pages="2">
  <diagram id="C5RBs43oDa-KdzZeNtuy" name="UMLClassDiagram">
    <mxGraphModel dx="1434" dy="758" grid="0" gridSize="10" guides="1" tooltips="1" connect="1" arrows="1" fold="1" page="1" pageScale="1" pageWidth="5000" pageHeight="5000" background="#ffffff" math="0" shadow="0">
      <root>
        <mxCell id="WIyWlLk6GJQsqaUBKTNV-0" />
        <mxCell id="WIyWlLk6GJQsqaUBKTNV-1" parent="WIyWlLk6GJQsqaUBKTNV-0" />
        <mxCell id="YSYK2PPCONX_veq47vCK-0" value="DatabaseFunctions" style="swimlane;fontStyle=1;align=center;verticalAlign=top;childLayout=stackLayout;horizontal=1;startSize=26;horizontalStack=0;resizeParent=1;resizeParentMax=0;resizeLast=0;collapsible=1;marginBottom=0;whiteSpace=wrap;html=1;fontFamily=Verdana;labelBackgroundColor=none;fillColor=#F2CC8F;strokeColor=#E07A5F;fontColor=#393C56;" parent="WIyWlLk6GJQsqaUBKTNV-1" vertex="1">
          <mxGeometry x="210" y="200" width="290" height="604" as="geometry" />
        </mxCell>
        <mxCell id="YSYK2PPCONX_veq47vCK-1" value="- oledbConnectionString: string" style="text;strokeColor=none;fillColor=none;align=left;verticalAlign=top;spacingLeft=4;spacingRight=4;overflow=hidden;rotatable=0;points=[[0,0.5],[1,0.5]];portConstraint=eastwest;whiteSpace=wrap;html=1;fontFamily=Verdana;labelBackgroundColor=none;fontColor=#393C56;" parent="YSYK2PPCONX_veq47vCK-0" vertex="1">
          <mxGeometry y="26" width="290" height="24" as="geometry" />
        </mxCell>
        <mxCell id="YSYK2PPCONX_veq47vCK-2" value="" style="line;strokeWidth=1;fillColor=none;align=left;verticalAlign=middle;spacingTop=-1;spacingLeft=3;spacingRight=3;rotatable=0;labelPosition=right;points=[];portConstraint=eastwest;strokeColor=#E07A5F;fontFamily=Verdana;labelBackgroundColor=none;fontColor=#393C56;" parent="YSYK2PPCONX_veq47vCK-0" vertex="1">
          <mxGeometry y="50" width="290" height="8" as="geometry" />
        </mxCell>
        <mxCell id="kOTYBEWQsQP9uNIm4N31-5" value="+ createDatabase()" style="text;strokeColor=none;fillColor=none;align=left;verticalAlign=top;spacingLeft=4;spacingRight=4;overflow=hidden;rotatable=0;points=[[0,0.5],[1,0.5]];portConstraint=eastwest;whiteSpace=wrap;html=1;fontFamily=Verdana;labelBackgroundColor=none;fontColor=#393C56;" parent="YSYK2PPCONX_veq47vCK-0" vertex="1">
          <mxGeometry y="58" width="290" height="26" as="geometry" />
        </mxCell>
        <mxCell id="kOTYBEWQsQP9uNIm4N31-6" value="+ checkUserAccountDatabseExists()" style="text;strokeColor=none;fillColor=none;align=left;verticalAlign=top;spacingLeft=4;spacingRight=4;overflow=hidden;rotatable=0;points=[[0,0.5],[1,0.5]];portConstraint=eastwest;whiteSpace=wrap;html=1;fontFamily=Verdana;labelBackgroundColor=none;fontColor=#393C56;" parent="YSYK2PPCONX_veq47vCK-0" vertex="1">
          <mxGeometry y="84" width="290" height="26" as="geometry" />
        </mxCell>
        <mxCell id="kOTYBEWQsQP9uNIm4N31-7" value="+ isValidDatabaseName(): bool" style="text;strokeColor=none;fillColor=none;align=left;verticalAlign=top;spacingLeft=4;spacingRight=4;overflow=hidden;rotatable=0;points=[[0,0.5],[1,0.5]];portConstraint=eastwest;whiteSpace=wrap;html=1;fontFamily=Verdana;labelBackgroundColor=none;fontColor=#393C56;" parent="YSYK2PPCONX_veq47vCK-0" vertex="1">
          <mxGeometry y="110" width="290" height="26" as="geometry" />
        </mxCell>
        <mxCell id="kOTYBEWQsQP9uNIm4N31-10" value="+ executeStringListQuery(): List&amp;lt;string&amp;gt;" style="text;strokeColor=none;fillColor=none;align=left;verticalAlign=top;spacingLeft=4;spacingRight=4;overflow=hidden;rotatable=0;points=[[0,0.5],[1,0.5]];portConstraint=eastwest;whiteSpace=wrap;html=1;fontFamily=Verdana;labelBackgroundColor=none;fontColor=#393C56;" parent="YSYK2PPCONX_veq47vCK-0" vertex="1">
          <mxGeometry y="136" width="290" height="26" as="geometry" />
        </mxCell>
        <mxCell id="kOTYBEWQsQP9uNIm4N31-11" value="+ isValidAccount(): bool" style="text;strokeColor=none;fillColor=none;align=left;verticalAlign=top;spacingLeft=4;spacingRight=4;overflow=hidden;rotatable=0;points=[[0,0.5],[1,0.5]];portConstraint=eastwest;whiteSpace=wrap;html=1;fontFamily=Verdana;labelBackgroundColor=none;fontColor=#393C56;" parent="YSYK2PPCONX_veq47vCK-0" vertex="1">
          <mxGeometry y="162" width="290" height="26" as="geometry" />
        </mxCell>
        <mxCell id="kOTYBEWQsQP9uNIm4N31-12" value="+ createAccount()" style="text;strokeColor=none;fillColor=none;align=left;verticalAlign=top;spacingLeft=4;spacingRight=4;overflow=hidden;rotatable=0;points=[[0,0.5],[1,0.5]];portConstraint=eastwest;whiteSpace=wrap;html=1;fontFamily=Verdana;labelBackgroundColor=none;fontColor=#393C56;" parent="YSYK2PPCONX_veq47vCK-0" vertex="1">
          <mxGeometry y="188" width="290" height="26" as="geometry" />
        </mxCell>
        <mxCell id="kOTYBEWQsQP9uNIm4N31-13" value="+ createProject(): bool" style="text;strokeColor=none;fillColor=none;align=left;verticalAlign=top;spacingLeft=4;spacingRight=4;overflow=hidden;rotatable=0;points=[[0,0.5],[1,0.5]];portConstraint=eastwest;whiteSpace=wrap;html=1;fontFamily=Verdana;labelBackgroundColor=none;fontColor=#393C56;" parent="YSYK2PPCONX_veq47vCK-0" vertex="1">
          <mxGeometry y="214" width="290" height="26" as="geometry" />
        </mxCell>
        <mxCell id="kOTYBEWQsQP9uNIm4N31-14" value="+ deleteProject()" style="text;strokeColor=none;fillColor=none;align=left;verticalAlign=top;spacingLeft=4;spacingRight=4;overflow=hidden;rotatable=0;points=[[0,0.5],[1,0.5]];portConstraint=eastwest;whiteSpace=wrap;html=1;fontFamily=Verdana;labelBackgroundColor=none;fontColor=#393C56;" parent="YSYK2PPCONX_veq47vCK-0" vertex="1">
          <mxGeometry y="240" width="290" height="26" as="geometry" />
        </mxCell>
        <mxCell id="kOTYBEWQsQP9uNIm4N31-15" value="+ projectNamesList(): List&amp;lt;string&amp;gt;" style="text;strokeColor=none;fillColor=none;align=left;verticalAlign=top;spacingLeft=4;spacingRight=4;overflow=hidden;rotatable=0;points=[[0,0.5],[1,0.5]];portConstraint=eastwest;whiteSpace=wrap;html=1;fontFamily=Verdana;labelBackgroundColor=none;fontColor=#393C56;" parent="YSYK2PPCONX_veq47vCK-0" vertex="1">
          <mxGeometry y="266" width="290" height="26" as="geometry" />
        </mxCell>
        <mxCell id="kOTYBEWQsQP9uNIm4N31-16" value="+ tasksData(): DataTable" style="text;strokeColor=none;fillColor=none;align=left;verticalAlign=top;spacingLeft=4;spacingRight=4;overflow=hidden;rotatable=0;points=[[0,0.5],[1,0.5]];portConstraint=eastwest;whiteSpace=wrap;html=1;fontFamily=Verdana;labelBackgroundColor=none;fontColor=#393C56;" parent="YSYK2PPCONX_veq47vCK-0" vertex="1">
          <mxGeometry y="292" width="290" height="26" as="geometry" />
        </mxCell>
        <mxCell id="kOTYBEWQsQP9uNIm4N31-17" value="+ addTask()" style="text;strokeColor=none;fillColor=none;align=left;verticalAlign=top;spacingLeft=4;spacingRight=4;overflow=hidden;rotatable=0;points=[[0,0.5],[1,0.5]];portConstraint=eastwest;whiteSpace=wrap;html=1;fontFamily=Verdana;labelBackgroundColor=none;fontColor=#393C56;" parent="YSYK2PPCONX_veq47vCK-0" vertex="1">
          <mxGeometry y="318" width="290" height="26" as="geometry" />
        </mxCell>
        <mxCell id="kOTYBEWQsQP9uNIm4N31-18" value="+ editTask()" style="text;strokeColor=none;fillColor=none;align=left;verticalAlign=top;spacingLeft=4;spacingRight=4;overflow=hidden;rotatable=0;points=[[0,0.5],[1,0.5]];portConstraint=eastwest;whiteSpace=wrap;html=1;fontFamily=Verdana;labelBackgroundColor=none;fontColor=#393C56;" parent="YSYK2PPCONX_veq47vCK-0" vertex="1">
          <mxGeometry y="344" width="290" height="26" as="geometry" />
        </mxCell>
        <mxCell id="kOTYBEWQsQP9uNIm4N31-19" value="+ deleteTask()" style="text;strokeColor=none;fillColor=none;align=left;verticalAlign=top;spacingLeft=4;spacingRight=4;overflow=hidden;rotatable=0;points=[[0,0.5],[1,0.5]];portConstraint=eastwest;whiteSpace=wrap;html=1;fontFamily=Verdana;labelBackgroundColor=none;fontColor=#393C56;" parent="YSYK2PPCONX_veq47vCK-0" vertex="1">
          <mxGeometry y="370" width="290" height="26" as="geometry" />
        </mxCell>
        <mxCell id="kOTYBEWQsQP9uNIm4N31-20" value="+ predecessorsList(): List&amp;lt;string&amp;gt;" style="text;strokeColor=none;fillColor=none;align=left;verticalAlign=top;spacingLeft=4;spacingRight=4;overflow=hidden;rotatable=0;points=[[0,0.5],[1,0.5]];portConstraint=eastwest;whiteSpace=wrap;html=1;fontFamily=Verdana;labelBackgroundColor=none;fontColor=#393C56;" parent="YSYK2PPCONX_veq47vCK-0" vertex="1">
          <mxGeometry y="396" width="290" height="26" as="geometry" />
        </mxCell>
        <mxCell id="YVCR-VSQV84rtF3k8rli-15" value="+ successorsList(): List&amp;lt;string&amp;gt;" style="text;strokeColor=none;fillColor=none;align=left;verticalAlign=top;spacingLeft=4;spacingRight=4;overflow=hidden;rotatable=0;points=[[0,0.5],[1,0.5]];portConstraint=eastwest;whiteSpace=wrap;html=1;fontFamily=Verdana;labelBackgroundColor=none;fontColor=#393C56;" parent="YSYK2PPCONX_veq47vCK-0" vertex="1">
          <mxGeometry y="422" width="290" height="26" as="geometry" />
        </mxCell>
        <mxCell id="YVCR-VSQV84rtF3k8rli-0" value="+ deleteDependency()" style="text;strokeColor=none;fillColor=none;align=left;verticalAlign=top;spacingLeft=4;spacingRight=4;overflow=hidden;rotatable=0;points=[[0,0.5],[1,0.5]];portConstraint=eastwest;whiteSpace=wrap;html=1;fontFamily=Verdana;labelBackgroundColor=none;fontColor=#393C56;" parent="YSYK2PPCONX_veq47vCK-0" vertex="1">
          <mxGeometry y="448" width="290" height="26" as="geometry" />
        </mxCell>
        <mxCell id="YVCR-VSQV84rtF3k8rli-1" value="+ addDependency()" style="text;strokeColor=none;fillColor=none;align=left;verticalAlign=top;spacingLeft=4;spacingRight=4;overflow=hidden;rotatable=0;points=[[0,0.5],[1,0.5]];portConstraint=eastwest;whiteSpace=wrap;html=1;fontFamily=Verdana;labelBackgroundColor=none;fontColor=#393C56;" parent="YSYK2PPCONX_veq47vCK-0" vertex="1">
          <mxGeometry y="474" width="290" height="26" as="geometry" />
        </mxCell>
        <mxCell id="YVCR-VSQV84rtF3k8rli-2" value="+ dependenciesCycle(): bool" style="text;strokeColor=none;fillColor=none;align=left;verticalAlign=top;spacingLeft=4;spacingRight=4;overflow=hidden;rotatable=0;points=[[0,0.5],[1,0.5]];portConstraint=eastwest;whiteSpace=wrap;html=1;fontFamily=Verdana;labelBackgroundColor=none;fontColor=#393C56;" parent="YSYK2PPCONX_veq47vCK-0" vertex="1">
          <mxGeometry y="500" width="290" height="26" as="geometry" />
        </mxCell>
        <mxCell id="YVCR-VSQV84rtF3k8rli-3" value="+ dfsCycle(): bool" style="text;strokeColor=none;fillColor=none;align=left;verticalAlign=top;spacingLeft=4;spacingRight=4;overflow=hidden;rotatable=0;points=[[0,0.5],[1,0.5]];portConstraint=eastwest;whiteSpace=wrap;html=1;fontFamily=Verdana;labelBackgroundColor=none;fontColor=#393C56;" parent="YSYK2PPCONX_veq47vCK-0" vertex="1">
          <mxGeometry y="526" width="290" height="26" as="geometry" />
        </mxCell>
        <mxCell id="kOTYBEWQsQP9uNIm4N31-8" value="- executeNonQuery()" style="text;strokeColor=none;fillColor=none;align=left;verticalAlign=top;spacingLeft=4;spacingRight=4;overflow=hidden;rotatable=0;points=[[0,0.5],[1,0.5]];portConstraint=eastwest;whiteSpace=wrap;html=1;fontFamily=Verdana;labelBackgroundColor=none;fontColor=#393C56;" parent="YSYK2PPCONX_veq47vCK-0" vertex="1">
          <mxGeometry y="552" width="290" height="26" as="geometry" />
        </mxCell>
        <mxCell id="kOTYBEWQsQP9uNIm4N31-9" value="- executeQuery(): DataTable" style="text;strokeColor=none;fillColor=none;align=left;verticalAlign=top;spacingLeft=4;spacingRight=4;overflow=hidden;rotatable=0;points=[[0,0.5],[1,0.5]];portConstraint=eastwest;whiteSpace=wrap;html=1;fontFamily=Verdana;labelBackgroundColor=none;fontColor=#393C56;" parent="YSYK2PPCONX_veq47vCK-0" vertex="1">
          <mxGeometry y="578" width="290" height="26" as="geometry" />
        </mxCell>
        <mxCell id="YVCR-VSQV84rtF3k8rli-17" value="djb2HashFunction" style="swimlane;fontStyle=1;align=center;verticalAlign=top;childLayout=stackLayout;horizontal=1;startSize=26;horizontalStack=0;resizeParent=1;resizeParentMax=0;resizeLast=0;collapsible=1;marginBottom=0;whiteSpace=wrap;html=1;fontFamily=Verdana;labelBackgroundColor=none;fillColor=#F2CC8F;strokeColor=#E07A5F;fontColor=#393C56;" parent="WIyWlLk6GJQsqaUBKTNV-1" vertex="1">
          <mxGeometry x="210" y="838" width="160" height="60" as="geometry" />
        </mxCell>
        <mxCell id="YVCR-VSQV84rtF3k8rli-19" value="" style="line;strokeWidth=1;fillColor=none;align=left;verticalAlign=middle;spacingTop=-1;spacingLeft=3;spacingRight=3;rotatable=0;labelPosition=right;points=[];portConstraint=eastwest;strokeColor=#E07A5F;fontFamily=Verdana;labelBackgroundColor=none;fontColor=#393C56;" parent="YVCR-VSQV84rtF3k8rli-17" vertex="1">
          <mxGeometry y="26" width="160" height="8" as="geometry" />
        </mxCell>
        <mxCell id="YVCR-VSQV84rtF3k8rli-20" value="+ djb2(): int" style="text;strokeColor=none;fillColor=none;align=left;verticalAlign=top;spacingLeft=4;spacingRight=4;overflow=hidden;rotatable=0;points=[[0,0.5],[1,0.5]];portConstraint=eastwest;whiteSpace=wrap;html=1;fontFamily=Verdana;labelBackgroundColor=none;fontColor=#393C56;" parent="YVCR-VSQV84rtF3k8rli-17" vertex="1">
          <mxGeometry y="34" width="160" height="26" as="geometry" />
        </mxCell>
        <mxCell id="YVCR-VSQV84rtF3k8rli-135" style="edgeStyle=orthogonalEdgeStyle;rounded=0;orthogonalLoop=1;jettySize=auto;html=1;strokeColor=#E07A5F;fontColor=#393C56;fillColor=#F2CC8F;endArrow=diamondThin;endFill=1;endSize=15;fontFamily=Verdana;" parent="WIyWlLk6GJQsqaUBKTNV-1" source="YVCR-VSQV84rtF3k8rli-21" target="YVCR-VSQV84rtF3k8rli-36" edge="1">
          <mxGeometry relative="1" as="geometry" />
        </mxCell>
        <mxCell id="YVCR-VSQV84rtF3k8rli-21" value="TaskGraph" style="swimlane;fontStyle=1;align=center;verticalAlign=top;childLayout=stackLayout;horizontal=1;startSize=26;horizontalStack=0;resizeParent=1;resizeParentMax=0;resizeLast=0;collapsible=1;marginBottom=0;whiteSpace=wrap;html=1;strokeColor=#E07A5F;fontColor=#393C56;fillColor=#F2CC8F;fontFamily=Verdana;labelBackgroundColor=none;" parent="WIyWlLk6GJQsqaUBKTNV-1" vertex="1">
          <mxGeometry x="1069.5" y="856" width="280" height="346" as="geometry" />
        </mxCell>
        <mxCell id="YVCR-VSQV84rtF3k8rli-22" value="- tasks: Dictionary&amp;lt;string, TaskNode&amp;gt;&amp;nbsp;" style="text;strokeColor=none;fillColor=none;align=left;verticalAlign=top;spacingLeft=4;spacingRight=4;overflow=hidden;rotatable=0;points=[[0,0.5],[1,0.5]];portConstraint=eastwest;whiteSpace=wrap;html=1;fontColor=#393C56;fontFamily=Verdana;labelBackgroundColor=none;" parent="YVCR-VSQV84rtF3k8rli-21" vertex="1">
          <mxGeometry y="26" width="280" height="26" as="geometry" />
        </mxCell>
        <mxCell id="YVCR-VSQV84rtF3k8rli-26" value="- criticalTasks: List&amp;lt;string&amp;gt;" style="text;strokeColor=none;fillColor=none;align=left;verticalAlign=top;spacingLeft=4;spacingRight=4;overflow=hidden;rotatable=0;points=[[0,0.5],[1,0.5]];portConstraint=eastwest;whiteSpace=wrap;html=1;fontColor=#393C56;fontFamily=Verdana;labelBackgroundColor=none;" parent="YVCR-VSQV84rtF3k8rli-21" vertex="1">
          <mxGeometry y="52" width="280" height="26" as="geometry" />
        </mxCell>
        <mxCell id="YVCR-VSQV84rtF3k8rli-25" value="- criticalPath: List&amp;lt;string&amp;gt;" style="text;strokeColor=none;fillColor=none;align=left;verticalAlign=top;spacingLeft=4;spacingRight=4;overflow=hidden;rotatable=0;points=[[0,0.5],[1,0.5]];portConstraint=eastwest;whiteSpace=wrap;html=1;fontColor=#393C56;fontFamily=Verdana;labelBackgroundColor=none;" parent="YVCR-VSQV84rtF3k8rli-21" vertex="1">
          <mxGeometry y="78" width="280" height="26" as="geometry" />
        </mxCell>
        <mxCell id="YVCR-VSQV84rtF3k8rli-23" value="" style="line;strokeWidth=1;fillColor=none;align=left;verticalAlign=middle;spacingTop=-1;spacingLeft=3;spacingRight=3;rotatable=0;labelPosition=right;points=[];portConstraint=eastwest;strokeColor=#E07A5F;fontColor=#393C56;fontFamily=Verdana;labelBackgroundColor=none;" parent="YVCR-VSQV84rtF3k8rli-21" vertex="1">
          <mxGeometry y="104" width="280" height="8" as="geometry" />
        </mxCell>
        <mxCell id="YVCR-VSQV84rtF3k8rli-24" value="+ TaskGraph()" style="text;strokeColor=none;fillColor=none;align=left;verticalAlign=top;spacingLeft=4;spacingRight=4;overflow=hidden;rotatable=0;points=[[0,0.5],[1,0.5]];portConstraint=eastwest;whiteSpace=wrap;html=1;fontColor=#393C56;fontFamily=Verdana;labelBackgroundColor=none;" parent="YVCR-VSQV84rtF3k8rli-21" vertex="1">
          <mxGeometry y="112" width="280" height="26" as="geometry" />
        </mxCell>
        <mxCell id="YVCR-VSQV84rtF3k8rli-32" value="+ getTotalDuration" style="text;strokeColor=none;fillColor=none;align=left;verticalAlign=top;spacingLeft=4;spacingRight=4;overflow=hidden;rotatable=0;points=[[0,0.5],[1,0.5]];portConstraint=eastwest;whiteSpace=wrap;html=1;fontColor=#393C56;fontFamily=Verdana;labelBackgroundColor=none;" parent="YVCR-VSQV84rtF3k8rli-21" vertex="1">
          <mxGeometry y="138" width="280" height="26" as="geometry" />
        </mxCell>
        <mxCell id="YVCR-VSQV84rtF3k8rli-33" value="+ getCriticalPath" style="text;strokeColor=none;fillColor=none;align=left;verticalAlign=top;spacingLeft=4;spacingRight=4;overflow=hidden;rotatable=0;points=[[0,0.5],[1,0.5]];portConstraint=eastwest;whiteSpace=wrap;html=1;fontColor=#393C56;fontFamily=Verdana;labelBackgroundColor=none;" parent="YVCR-VSQV84rtF3k8rli-21" vertex="1">
          <mxGeometry y="164" width="280" height="26" as="geometry" />
        </mxCell>
        <mxCell id="YVCR-VSQV84rtF3k8rli-34" value="+ getTasks(): Dictionary&amp;lt;string, TaskNode&amp;gt;" style="text;strokeColor=none;fillColor=none;align=left;verticalAlign=top;spacingLeft=4;spacingRight=4;overflow=hidden;rotatable=0;points=[[0,0.5],[1,0.5]];portConstraint=eastwest;whiteSpace=wrap;html=1;fontColor=#393C56;fontFamily=Verdana;labelBackgroundColor=none;" parent="YVCR-VSQV84rtF3k8rli-21" vertex="1">
          <mxGeometry y="190" width="280" height="26" as="geometry" />
        </mxCell>
        <mxCell id="YVCR-VSQV84rtF3k8rli-27" value="- initStartEnd()" style="text;strokeColor=none;fillColor=none;align=left;verticalAlign=top;spacingLeft=4;spacingRight=4;overflow=hidden;rotatable=0;points=[[0,0.5],[1,0.5]];portConstraint=eastwest;whiteSpace=wrap;html=1;fontColor=#393C56;fontFamily=Verdana;labelBackgroundColor=none;" parent="YVCR-VSQV84rtF3k8rli-21" vertex="1">
          <mxGeometry y="216" width="280" height="26" as="geometry" />
        </mxCell>
        <mxCell id="YVCR-VSQV84rtF3k8rli-28" value="- setAllProcessedFalse()" style="text;strokeColor=none;fillColor=none;align=left;verticalAlign=top;spacingLeft=4;spacingRight=4;overflow=hidden;rotatable=0;points=[[0,0.5],[1,0.5]];portConstraint=eastwest;whiteSpace=wrap;html=1;fontColor=#393C56;fontFamily=Verdana;labelBackgroundColor=none;" parent="YVCR-VSQV84rtF3k8rli-21" vertex="1">
          <mxGeometry y="242" width="280" height="26" as="geometry" />
        </mxCell>
        <mxCell id="YVCR-VSQV84rtF3k8rli-29" value="- forwardPass()" style="text;strokeColor=none;fillColor=none;align=left;verticalAlign=top;spacingLeft=4;spacingRight=4;overflow=hidden;rotatable=0;points=[[0,0.5],[1,0.5]];portConstraint=eastwest;whiteSpace=wrap;html=1;fontColor=#393C56;fontFamily=Verdana;labelBackgroundColor=none;" parent="YVCR-VSQV84rtF3k8rli-21" vertex="1">
          <mxGeometry y="268" width="280" height="26" as="geometry" />
        </mxCell>
        <mxCell id="YVCR-VSQV84rtF3k8rli-30" value="- backwardPass()" style="text;strokeColor=none;fillColor=none;align=left;verticalAlign=top;spacingLeft=4;spacingRight=4;overflow=hidden;rotatable=0;points=[[0,0.5],[1,0.5]];portConstraint=eastwest;whiteSpace=wrap;html=1;fontColor=#393C56;fontFamily=Verdana;labelBackgroundColor=none;" parent="YVCR-VSQV84rtF3k8rli-21" vertex="1">
          <mxGeometry y="294" width="280" height="26" as="geometry" />
        </mxCell>
        <mxCell id="YVCR-VSQV84rtF3k8rli-31" value="- calculateFloats" style="text;strokeColor=none;fillColor=none;align=left;verticalAlign=top;spacingLeft=4;spacingRight=4;overflow=hidden;rotatable=0;points=[[0,0.5],[1,0.5]];portConstraint=eastwest;whiteSpace=wrap;html=1;fontColor=#393C56;fontFamily=Verdana;labelBackgroundColor=none;" parent="YVCR-VSQV84rtF3k8rli-21" vertex="1">
          <mxGeometry y="320" width="280" height="26" as="geometry" />
        </mxCell>
        <mxCell id="YVCR-VSQV84rtF3k8rli-36" value="TaskNode" style="swimlane;fontStyle=1;align=center;verticalAlign=top;childLayout=stackLayout;horizontal=1;startSize=26;horizontalStack=0;resizeParent=1;resizeParentMax=0;resizeLast=0;collapsible=1;marginBottom=0;whiteSpace=wrap;html=1;strokeColor=#E07A5F;fontColor=#393C56;fillColor=#F2CC8F;fontFamily=Verdana;labelBackgroundColor=none;" parent="WIyWlLk6GJQsqaUBKTNV-1" vertex="1">
          <mxGeometry x="1089.5" y="1321" width="240" height="398" as="geometry" />
        </mxCell>
        <mxCell id="YVCR-VSQV84rtF3k8rli-37" value="+ name: string" style="text;strokeColor=none;fillColor=none;align=left;verticalAlign=top;spacingLeft=4;spacingRight=4;overflow=hidden;rotatable=0;points=[[0,0.5],[1,0.5]];portConstraint=eastwest;whiteSpace=wrap;html=1;fontColor=#393C56;fontFamily=Verdana;labelBackgroundColor=none;" parent="YVCR-VSQV84rtF3k8rli-36" vertex="1">
          <mxGeometry y="26" width="240" height="26" as="geometry" />
        </mxCell>
        <mxCell id="YVCR-VSQV84rtF3k8rli-52" value="+ duration: int" style="text;strokeColor=none;fillColor=none;align=left;verticalAlign=top;spacingLeft=4;spacingRight=4;overflow=hidden;rotatable=0;points=[[0,0.5],[1,0.5]];portConstraint=eastwest;whiteSpace=wrap;html=1;fontColor=#393C56;fontFamily=Verdana;labelBackgroundColor=none;" parent="YVCR-VSQV84rtF3k8rli-36" vertex="1">
          <mxGeometry y="52" width="240" height="26" as="geometry" />
        </mxCell>
        <mxCell id="YVCR-VSQV84rtF3k8rli-51" value="+ numWorkers: int" style="text;strokeColor=none;fillColor=none;align=left;verticalAlign=top;spacingLeft=4;spacingRight=4;overflow=hidden;rotatable=0;points=[[0,0.5],[1,0.5]];portConstraint=eastwest;whiteSpace=wrap;html=1;fontColor=#393C56;fontFamily=Verdana;labelBackgroundColor=none;" parent="YVCR-VSQV84rtF3k8rli-36" vertex="1">
          <mxGeometry y="78" width="240" height="26" as="geometry" />
        </mxCell>
        <mxCell id="YVCR-VSQV84rtF3k8rli-50" value="+ predecessorNames: List&amp;lt;string&amp;gt;" style="text;strokeColor=none;fillColor=none;align=left;verticalAlign=top;spacingLeft=4;spacingRight=4;overflow=hidden;rotatable=0;points=[[0,0.5],[1,0.5]];portConstraint=eastwest;whiteSpace=wrap;html=1;fontColor=#393C56;fontFamily=Verdana;labelBackgroundColor=none;" parent="YVCR-VSQV84rtF3k8rli-36" vertex="1">
          <mxGeometry y="104" width="240" height="26" as="geometry" />
        </mxCell>
        <mxCell id="YVCR-VSQV84rtF3k8rli-49" value="+ successorrNames: List&amp;lt;string&amp;gt;" style="text;strokeColor=none;fillColor=none;align=left;verticalAlign=top;spacingLeft=4;spacingRight=4;overflow=hidden;rotatable=0;points=[[0,0.5],[1,0.5]];portConstraint=eastwest;whiteSpace=wrap;html=1;fontColor=#393C56;fontFamily=Verdana;labelBackgroundColor=none;" parent="YVCR-VSQV84rtF3k8rli-36" vertex="1">
          <mxGeometry y="130" width="240" height="26" as="geometry" />
        </mxCell>
        <mxCell id="YVCR-VSQV84rtF3k8rli-48" value="+ earliestStartTime: int" style="text;strokeColor=none;fillColor=none;align=left;verticalAlign=top;spacingLeft=4;spacingRight=4;overflow=hidden;rotatable=0;points=[[0,0.5],[1,0.5]];portConstraint=eastwest;whiteSpace=wrap;html=1;fontColor=#393C56;fontFamily=Verdana;labelBackgroundColor=none;" parent="YVCR-VSQV84rtF3k8rli-36" vertex="1">
          <mxGeometry y="156" width="240" height="26" as="geometry" />
        </mxCell>
        <mxCell id="YVCR-VSQV84rtF3k8rli-47" value="+ latestStartTime: int" style="text;strokeColor=none;fillColor=none;align=left;verticalAlign=top;spacingLeft=4;spacingRight=4;overflow=hidden;rotatable=0;points=[[0,0.5],[1,0.5]];portConstraint=eastwest;whiteSpace=wrap;html=1;fontColor=#393C56;fontFamily=Verdana;labelBackgroundColor=none;" parent="YVCR-VSQV84rtF3k8rli-36" vertex="1">
          <mxGeometry y="182" width="240" height="26" as="geometry" />
        </mxCell>
        <mxCell id="YVCR-VSQV84rtF3k8rli-46" value="+ earliestFinishTime: int" style="text;strokeColor=none;fillColor=none;align=left;verticalAlign=top;spacingLeft=4;spacingRight=4;overflow=hidden;rotatable=0;points=[[0,0.5],[1,0.5]];portConstraint=eastwest;whiteSpace=wrap;html=1;fontColor=#393C56;fontFamily=Verdana;labelBackgroundColor=none;" parent="YVCR-VSQV84rtF3k8rli-36" vertex="1">
          <mxGeometry y="208" width="240" height="26" as="geometry" />
        </mxCell>
        <mxCell id="YVCR-VSQV84rtF3k8rli-45" value="+ latestFinishTime: int" style="text;strokeColor=none;fillColor=none;align=left;verticalAlign=top;spacingLeft=4;spacingRight=4;overflow=hidden;rotatable=0;points=[[0,0.5],[1,0.5]];portConstraint=eastwest;whiteSpace=wrap;html=1;fontColor=#393C56;fontFamily=Verdana;labelBackgroundColor=none;" parent="YVCR-VSQV84rtF3k8rli-36" vertex="1">
          <mxGeometry y="234" width="240" height="26" as="geometry" />
        </mxCell>
        <mxCell id="YVCR-VSQV84rtF3k8rli-44" value="+ totalFloat: int" style="text;strokeColor=none;fillColor=none;align=left;verticalAlign=top;spacingLeft=4;spacingRight=4;overflow=hidden;rotatable=0;points=[[0,0.5],[1,0.5]];portConstraint=eastwest;whiteSpace=wrap;html=1;fontColor=#393C56;fontFamily=Verdana;labelBackgroundColor=none;" parent="YVCR-VSQV84rtF3k8rli-36" vertex="1">
          <mxGeometry y="260" width="240" height="26" as="geometry" />
        </mxCell>
        <mxCell id="YVCR-VSQV84rtF3k8rli-43" value="+ independentFloat: int" style="text;strokeColor=none;fillColor=none;align=left;verticalAlign=top;spacingLeft=4;spacingRight=4;overflow=hidden;rotatable=0;points=[[0,0.5],[1,0.5]];portConstraint=eastwest;whiteSpace=wrap;html=1;fontColor=#393C56;fontFamily=Verdana;labelBackgroundColor=none;" parent="YVCR-VSQV84rtF3k8rli-36" vertex="1">
          <mxGeometry y="286" width="240" height="26" as="geometry" />
        </mxCell>
        <mxCell id="YVCR-VSQV84rtF3k8rli-42" value="+ interferingFloat: int" style="text;strokeColor=none;fillColor=none;align=left;verticalAlign=top;spacingLeft=4;spacingRight=4;overflow=hidden;rotatable=0;points=[[0,0.5],[1,0.5]];portConstraint=eastwest;whiteSpace=wrap;html=1;fontColor=#393C56;fontFamily=Verdana;labelBackgroundColor=none;" parent="YVCR-VSQV84rtF3k8rli-36" vertex="1">
          <mxGeometry y="312" width="240" height="26" as="geometry" />
        </mxCell>
        <mxCell id="YVCR-VSQV84rtF3k8rli-53" value="+ processed: bool" style="text;strokeColor=none;fillColor=none;align=left;verticalAlign=top;spacingLeft=4;spacingRight=4;overflow=hidden;rotatable=0;points=[[0,0.5],[1,0.5]];portConstraint=eastwest;whiteSpace=wrap;html=1;fontColor=#393C56;fontFamily=Verdana;labelBackgroundColor=none;" parent="YVCR-VSQV84rtF3k8rli-36" vertex="1">
          <mxGeometry y="338" width="240" height="26" as="geometry" />
        </mxCell>
        <mxCell id="YVCR-VSQV84rtF3k8rli-38" value="" style="line;strokeWidth=1;fillColor=none;align=left;verticalAlign=middle;spacingTop=-1;spacingLeft=3;spacingRight=3;rotatable=0;labelPosition=right;points=[];portConstraint=eastwest;strokeColor=#E07A5F;fontColor=#393C56;fontFamily=Verdana;labelBackgroundColor=none;" parent="YVCR-VSQV84rtF3k8rli-36" vertex="1">
          <mxGeometry y="364" width="240" height="8" as="geometry" />
        </mxCell>
        <mxCell id="YVCR-VSQV84rtF3k8rli-39" value="+ TaskNode()" style="text;strokeColor=none;fillColor=none;align=left;verticalAlign=top;spacingLeft=4;spacingRight=4;overflow=hidden;rotatable=0;points=[[0,0.5],[1,0.5]];portConstraint=eastwest;whiteSpace=wrap;html=1;fontColor=#393C56;fontFamily=Verdana;labelBackgroundColor=none;" parent="YVCR-VSQV84rtF3k8rli-36" vertex="1">
          <mxGeometry y="372" width="240" height="26" as="geometry" />
        </mxCell>
        <mxCell id="YVCR-VSQV84rtF3k8rli-57" value="LoginForm" style="swimlane;fontStyle=1;align=center;verticalAlign=top;childLayout=stackLayout;horizontal=1;startSize=26;horizontalStack=0;resizeParent=1;resizeParentMax=0;resizeLast=0;collapsible=1;marginBottom=0;whiteSpace=wrap;html=1;labelBackgroundColor=none;fillColor=#F2CC8F;strokeColor=#E07A5F;fontColor=#393C56;fontFamily=Verdana;" parent="WIyWlLk6GJQsqaUBKTNV-1" vertex="1">
          <mxGeometry x="561" y="200" width="237" height="164" as="geometry" />
        </mxCell>
        <mxCell id="YVCR-VSQV84rtF3k8rli-59" value="" style="line;strokeWidth=1;fillColor=none;align=left;verticalAlign=middle;spacingTop=-1;spacingLeft=3;spacingRight=3;rotatable=0;labelPosition=right;points=[];portConstraint=eastwest;strokeColor=#E07A5F;labelBackgroundColor=none;fontColor=#393C56;fontFamily=Verdana;" parent="YVCR-VSQV84rtF3k8rli-57" vertex="1">
          <mxGeometry y="26" width="237" height="8" as="geometry" />
        </mxCell>
        <mxCell id="YVCR-VSQV84rtF3k8rli-60" value="+ LoginForm()" style="text;strokeColor=none;fillColor=none;align=left;verticalAlign=top;spacingLeft=4;spacingRight=4;overflow=hidden;rotatable=0;points=[[0,0.5],[1,0.5]];portConstraint=eastwest;whiteSpace=wrap;html=1;labelBackgroundColor=none;fontColor=#393C56;fontFamily=Verdana;" parent="YVCR-VSQV84rtF3k8rli-57" vertex="1">
          <mxGeometry y="34" width="237" height="26" as="geometry" />
        </mxCell>
        <mxCell id="YVCR-VSQV84rtF3k8rli-61" value="- LoginForm_Load()" style="text;strokeColor=none;fillColor=none;align=left;verticalAlign=top;spacingLeft=4;spacingRight=4;overflow=hidden;rotatable=0;points=[[0,0.5],[1,0.5]];portConstraint=eastwest;whiteSpace=wrap;html=1;labelBackgroundColor=none;fontColor=#393C56;fontFamily=Verdana;" parent="YVCR-VSQV84rtF3k8rli-57" vertex="1">
          <mxGeometry y="60" width="237" height="26" as="geometry" />
        </mxCell>
        <mxCell id="YVCR-VSQV84rtF3k8rli-62" value="- LoginButton_Click()" style="text;strokeColor=none;fillColor=none;align=left;verticalAlign=top;spacingLeft=4;spacingRight=4;overflow=hidden;rotatable=0;points=[[0,0.5],[1,0.5]];portConstraint=eastwest;whiteSpace=wrap;html=1;labelBackgroundColor=none;fontColor=#393C56;fontFamily=Verdana;" parent="YVCR-VSQV84rtF3k8rli-57" vertex="1">
          <mxGeometry y="86" width="237" height="26" as="geometry" />
        </mxCell>
        <mxCell id="YVCR-VSQV84rtF3k8rli-63" value="- CreateAccountButton_Click()" style="text;strokeColor=none;fillColor=none;align=left;verticalAlign=top;spacingLeft=4;spacingRight=4;overflow=hidden;rotatable=0;points=[[0,0.5],[1,0.5]];portConstraint=eastwest;whiteSpace=wrap;html=1;labelBackgroundColor=none;fontColor=#393C56;fontFamily=Verdana;" parent="YVCR-VSQV84rtF3k8rli-57" vertex="1">
          <mxGeometry y="112" width="237" height="26" as="geometry" />
        </mxCell>
        <mxCell id="YVCR-VSQV84rtF3k8rli-64" value="- ExitButton_Click()" style="text;strokeColor=none;fillColor=none;align=left;verticalAlign=top;spacingLeft=4;spacingRight=4;overflow=hidden;rotatable=0;points=[[0,0.5],[1,0.5]];portConstraint=eastwest;whiteSpace=wrap;html=1;labelBackgroundColor=none;fontColor=#393C56;fontFamily=Verdana;" parent="YVCR-VSQV84rtF3k8rli-57" vertex="1">
          <mxGeometry y="138" width="237" height="26" as="geometry" />
        </mxCell>
        <mxCell id="YVCR-VSQV84rtF3k8rli-65" value="LoadProjectForm" style="swimlane;fontStyle=1;align=center;verticalAlign=top;childLayout=stackLayout;horizontal=1;startSize=26;horizontalStack=0;resizeParent=1;resizeParentMax=0;resizeLast=0;collapsible=1;marginBottom=0;whiteSpace=wrap;html=1;labelBackgroundColor=none;fillColor=#F2CC8F;strokeColor=#E07A5F;fontColor=#393C56;fontFamily=Verdana;" parent="WIyWlLk6GJQsqaUBKTNV-1" vertex="1">
          <mxGeometry x="847" y="200" width="237" height="216" as="geometry" />
        </mxCell>
        <mxCell id="YVCR-VSQV84rtF3k8rli-75" value="- username: string" style="text;strokeColor=none;fillColor=none;align=left;verticalAlign=top;spacingLeft=4;spacingRight=4;overflow=hidden;rotatable=0;points=[[0,0.5],[1,0.5]];portConstraint=eastwest;whiteSpace=wrap;html=1;fontColor=#393C56;fontFamily=Verdana;" parent="YVCR-VSQV84rtF3k8rli-65" vertex="1">
          <mxGeometry y="26" width="237" height="26" as="geometry" />
        </mxCell>
        <mxCell id="YVCR-VSQV84rtF3k8rli-66" value="" style="line;strokeWidth=1;fillColor=none;align=left;verticalAlign=middle;spacingTop=-1;spacingLeft=3;spacingRight=3;rotatable=0;labelPosition=right;points=[];portConstraint=eastwest;strokeColor=#E07A5F;labelBackgroundColor=none;fontColor=#393C56;fontFamily=Verdana;" parent="YVCR-VSQV84rtF3k8rli-65" vertex="1">
          <mxGeometry y="52" width="237" height="8" as="geometry" />
        </mxCell>
        <mxCell id="YVCR-VSQV84rtF3k8rli-67" value="+ LoadProjectForm()" style="text;strokeColor=none;fillColor=none;align=left;verticalAlign=top;spacingLeft=4;spacingRight=4;overflow=hidden;rotatable=0;points=[[0,0.5],[1,0.5]];portConstraint=eastwest;whiteSpace=wrap;html=1;labelBackgroundColor=none;fontColor=#393C56;fontFamily=Verdana;" parent="YVCR-VSQV84rtF3k8rli-65" vertex="1">
          <mxGeometry y="60" width="237" height="26" as="geometry" />
        </mxCell>
        <mxCell id="YVCR-VSQV84rtF3k8rli-68" value="- projectListBoxRefresh()" style="text;strokeColor=none;fillColor=none;align=left;verticalAlign=top;spacingLeft=4;spacingRight=4;overflow=hidden;rotatable=0;points=[[0,0.5],[1,0.5]];portConstraint=eastwest;whiteSpace=wrap;html=1;labelBackgroundColor=none;fontColor=#393C56;fontFamily=Verdana;" parent="YVCR-VSQV84rtF3k8rli-65" vertex="1">
          <mxGeometry y="86" width="237" height="26" as="geometry" />
        </mxCell>
        <mxCell id="YVCR-VSQV84rtF3k8rli-69" value="- LoadButton_Click()" style="text;strokeColor=none;fillColor=none;align=left;verticalAlign=top;spacingLeft=4;spacingRight=4;overflow=hidden;rotatable=0;points=[[0,0.5],[1,0.5]];portConstraint=eastwest;whiteSpace=wrap;html=1;labelBackgroundColor=none;fontColor=#393C56;fontFamily=Verdana;" parent="YVCR-VSQV84rtF3k8rli-65" vertex="1">
          <mxGeometry y="112" width="237" height="26" as="geometry" />
        </mxCell>
        <mxCell id="YVCR-VSQV84rtF3k8rli-73" value="- BacktoLoginButton_Click()" style="text;strokeColor=none;fillColor=none;align=left;verticalAlign=top;spacingLeft=4;spacingRight=4;overflow=hidden;rotatable=0;points=[[0,0.5],[1,0.5]];portConstraint=eastwest;whiteSpace=wrap;html=1;labelBackgroundColor=none;fontColor=#393C56;fontFamily=Verdana;" parent="YVCR-VSQV84rtF3k8rli-65" vertex="1">
          <mxGeometry y="138" width="237" height="26" as="geometry" />
        </mxCell>
        <mxCell id="YVCR-VSQV84rtF3k8rli-70" value="- DeleteProjectButton_Click()" style="text;strokeColor=none;fillColor=none;align=left;verticalAlign=top;spacingLeft=4;spacingRight=4;overflow=hidden;rotatable=0;points=[[0,0.5],[1,0.5]];portConstraint=eastwest;whiteSpace=wrap;html=1;labelBackgroundColor=none;fontColor=#393C56;fontFamily=Verdana;" parent="YVCR-VSQV84rtF3k8rli-65" vertex="1">
          <mxGeometry y="164" width="237" height="26" as="geometry" />
        </mxCell>
        <mxCell id="YVCR-VSQV84rtF3k8rli-71" value="- ExitButton_Click()" style="text;strokeColor=none;fillColor=none;align=left;verticalAlign=top;spacingLeft=4;spacingRight=4;overflow=hidden;rotatable=0;points=[[0,0.5],[1,0.5]];portConstraint=eastwest;whiteSpace=wrap;html=1;labelBackgroundColor=none;fontColor=#393C56;fontFamily=Verdana;" parent="YVCR-VSQV84rtF3k8rli-65" vertex="1">
          <mxGeometry y="190" width="237" height="26" as="geometry" />
        </mxCell>
        <mxCell id="YVCR-VSQV84rtF3k8rli-76" value="CreateNewProjectForm" style="swimlane;fontStyle=1;align=center;verticalAlign=top;childLayout=stackLayout;horizontal=1;startSize=26;horizontalStack=0;resizeParent=1;resizeParentMax=0;resizeLast=0;collapsible=1;marginBottom=0;whiteSpace=wrap;html=1;labelBackgroundColor=none;fillColor=#F2CC8F;strokeColor=#E07A5F;fontColor=#393C56;fontFamily=Verdana;" parent="WIyWlLk6GJQsqaUBKTNV-1" vertex="1">
          <mxGeometry x="1139" y="200" width="237" height="164" as="geometry" />
        </mxCell>
        <mxCell id="YVCR-VSQV84rtF3k8rli-77" value="- username: string" style="text;strokeColor=none;fillColor=none;align=left;verticalAlign=top;spacingLeft=4;spacingRight=4;overflow=hidden;rotatable=0;points=[[0,0.5],[1,0.5]];portConstraint=eastwest;whiteSpace=wrap;html=1;fontColor=#393C56;fontFamily=Verdana;" parent="YVCR-VSQV84rtF3k8rli-76" vertex="1">
          <mxGeometry y="26" width="237" height="26" as="geometry" />
        </mxCell>
        <mxCell id="YVCR-VSQV84rtF3k8rli-78" value="" style="line;strokeWidth=1;fillColor=none;align=left;verticalAlign=middle;spacingTop=-1;spacingLeft=3;spacingRight=3;rotatable=0;labelPosition=right;points=[];portConstraint=eastwest;strokeColor=#E07A5F;labelBackgroundColor=none;fontColor=#393C56;fontFamily=Verdana;" parent="YVCR-VSQV84rtF3k8rli-76" vertex="1">
          <mxGeometry y="52" width="237" height="8" as="geometry" />
        </mxCell>
        <mxCell id="YVCR-VSQV84rtF3k8rli-79" value="+ CreateNewProjectForm()" style="text;strokeColor=none;fillColor=none;align=left;verticalAlign=top;spacingLeft=4;spacingRight=4;overflow=hidden;rotatable=0;points=[[0,0.5],[1,0.5]];portConstraint=eastwest;whiteSpace=wrap;html=1;labelBackgroundColor=none;fontColor=#393C56;fontFamily=Verdana;" parent="YVCR-VSQV84rtF3k8rli-76" vertex="1">
          <mxGeometry y="60" width="237" height="26" as="geometry" />
        </mxCell>
        <mxCell id="YVCR-VSQV84rtF3k8rli-81" value="- CreateButton_Click()" style="text;strokeColor=none;fillColor=none;align=left;verticalAlign=top;spacingLeft=4;spacingRight=4;overflow=hidden;rotatable=0;points=[[0,0.5],[1,0.5]];portConstraint=eastwest;whiteSpace=wrap;html=1;labelBackgroundColor=none;fontColor=#393C56;fontFamily=Verdana;" parent="YVCR-VSQV84rtF3k8rli-76" vertex="1">
          <mxGeometry y="86" width="237" height="26" as="geometry" />
        </mxCell>
        <mxCell id="YVCR-VSQV84rtF3k8rli-82" value="- BacktoLoginButton_Click()" style="text;strokeColor=none;fillColor=none;align=left;verticalAlign=top;spacingLeft=4;spacingRight=4;overflow=hidden;rotatable=0;points=[[0,0.5],[1,0.5]];portConstraint=eastwest;whiteSpace=wrap;html=1;labelBackgroundColor=none;fontColor=#393C56;fontFamily=Verdana;" parent="YVCR-VSQV84rtF3k8rli-76" vertex="1">
          <mxGeometry y="112" width="237" height="26" as="geometry" />
        </mxCell>
        <mxCell id="YVCR-VSQV84rtF3k8rli-84" value="- ExitButton_Click()" style="text;strokeColor=none;fillColor=none;align=left;verticalAlign=top;spacingLeft=4;spacingRight=4;overflow=hidden;rotatable=0;points=[[0,0.5],[1,0.5]];portConstraint=eastwest;whiteSpace=wrap;html=1;labelBackgroundColor=none;fontColor=#393C56;fontFamily=Verdana;" parent="YVCR-VSQV84rtF3k8rli-76" vertex="1">
          <mxGeometry y="138" width="237" height="26" as="geometry" />
        </mxCell>
        <mxCell id="YVCR-VSQV84rtF3k8rli-85" value="EditProjectForm" style="swimlane;fontStyle=1;align=center;verticalAlign=top;childLayout=stackLayout;horizontal=1;startSize=26;horizontalStack=0;resizeParent=1;resizeParentMax=0;resizeLast=0;collapsible=1;marginBottom=0;whiteSpace=wrap;html=1;labelBackgroundColor=none;fillColor=#F2CC8F;strokeColor=#E07A5F;fontColor=#393C56;fontFamily=Verdana;" parent="WIyWlLk6GJQsqaUBKTNV-1" vertex="1">
          <mxGeometry x="561" y="457" width="418" height="372" as="geometry" />
        </mxCell>
        <mxCell id="YVCR-VSQV84rtF3k8rli-86" value="- projectName: string" style="text;strokeColor=none;fillColor=none;align=left;verticalAlign=top;spacingLeft=4;spacingRight=4;overflow=hidden;rotatable=0;points=[[0,0.5],[1,0.5]];portConstraint=eastwest;whiteSpace=wrap;html=1;fontColor=#393C56;fontFamily=Verdana;" parent="YVCR-VSQV84rtF3k8rli-85" vertex="1">
          <mxGeometry y="26" width="418" height="26" as="geometry" />
        </mxCell>
        <mxCell id="YVCR-VSQV84rtF3k8rli-92" value="- username: string" style="text;strokeColor=none;fillColor=none;align=left;verticalAlign=top;spacingLeft=4;spacingRight=4;overflow=hidden;rotatable=0;points=[[0,0.5],[1,0.5]];portConstraint=eastwest;whiteSpace=wrap;html=1;fontColor=#393C56;fontFamily=Verdana;" parent="YVCR-VSQV84rtF3k8rli-85" vertex="1">
          <mxGeometry y="52" width="418" height="26" as="geometry" />
        </mxCell>
        <mxCell id="YVCR-VSQV84rtF3k8rli-87" value="" style="line;strokeWidth=1;fillColor=none;align=left;verticalAlign=middle;spacingTop=-1;spacingLeft=3;spacingRight=3;rotatable=0;labelPosition=right;points=[];portConstraint=eastwest;strokeColor=#E07A5F;labelBackgroundColor=none;fontColor=#393C56;fontFamily=Verdana;" parent="YVCR-VSQV84rtF3k8rli-85" vertex="1">
          <mxGeometry y="78" width="418" height="8" as="geometry" />
        </mxCell>
        <mxCell id="YVCR-VSQV84rtF3k8rli-88" value="+ EditProjectForm()" style="text;strokeColor=none;fillColor=none;align=left;verticalAlign=top;spacingLeft=4;spacingRight=4;overflow=hidden;rotatable=0;points=[[0,0.5],[1,0.5]];portConstraint=eastwest;whiteSpace=wrap;html=1;labelBackgroundColor=none;fontColor=#393C56;fontFamily=Verdana;" parent="YVCR-VSQV84rtF3k8rli-85" vertex="1">
          <mxGeometry y="86" width="418" height="26" as="geometry" />
        </mxCell>
        <mxCell id="YVCR-VSQV84rtF3k8rli-95" value="- tasksDataGrid_SelectionChanged()" style="text;strokeColor=none;fillColor=none;align=left;verticalAlign=top;spacingLeft=4;spacingRight=4;overflow=hidden;rotatable=0;points=[[0,0.5],[1,0.5]];portConstraint=eastwest;whiteSpace=wrap;html=1;labelBackgroundColor=none;fontColor=#393C56;fontFamily=Verdana;" parent="YVCR-VSQV84rtF3k8rli-85" vertex="1">
          <mxGeometry y="112" width="418" height="26" as="geometry" />
        </mxCell>
        <mxCell id="YVCR-VSQV84rtF3k8rli-97" value="- updateTasksDataGrid()" style="text;strokeColor=none;fillColor=none;align=left;verticalAlign=top;spacingLeft=4;spacingRight=4;overflow=hidden;rotatable=0;points=[[0,0.5],[1,0.5]];portConstraint=eastwest;whiteSpace=wrap;html=1;labelBackgroundColor=none;fontColor=#393C56;fontFamily=Verdana;" parent="YVCR-VSQV84rtF3k8rli-85" vertex="1">
          <mxGeometry y="138" width="418" height="26" as="geometry" />
        </mxCell>
        <mxCell id="YVCR-VSQV84rtF3k8rli-96" value="- AddTaskButton_Click()" style="text;strokeColor=none;fillColor=none;align=left;verticalAlign=top;spacingLeft=4;spacingRight=4;overflow=hidden;rotatable=0;points=[[0,0.5],[1,0.5]];portConstraint=eastwest;whiteSpace=wrap;html=1;labelBackgroundColor=none;fontColor=#393C56;fontFamily=Verdana;" parent="YVCR-VSQV84rtF3k8rli-85" vertex="1">
          <mxGeometry y="164" width="418" height="26" as="geometry" />
        </mxCell>
        <mxCell id="YVCR-VSQV84rtF3k8rli-93" value="- EditTaskButton_Click()" style="text;strokeColor=none;fillColor=none;align=left;verticalAlign=top;spacingLeft=4;spacingRight=4;overflow=hidden;rotatable=0;points=[[0,0.5],[1,0.5]];portConstraint=eastwest;whiteSpace=wrap;html=1;labelBackgroundColor=none;fontColor=#393C56;fontFamily=Verdana;" parent="YVCR-VSQV84rtF3k8rli-85" vertex="1">
          <mxGeometry y="190" width="418" height="26" as="geometry" />
        </mxCell>
        <mxCell id="YVCR-VSQV84rtF3k8rli-99" value="- DeleteTaskButton_Click()" style="text;strokeColor=none;fillColor=none;align=left;verticalAlign=top;spacingLeft=4;spacingRight=4;overflow=hidden;rotatable=0;points=[[0,0.5],[1,0.5]];portConstraint=eastwest;whiteSpace=wrap;html=1;labelBackgroundColor=none;fontColor=#393C56;fontFamily=Verdana;" parent="YVCR-VSQV84rtF3k8rli-85" vertex="1">
          <mxGeometry y="216" width="418" height="26" as="geometry" />
        </mxCell>
        <mxCell id="YVCR-VSQV84rtF3k8rli-94" value="- refreshUpdateDependenciesCheckedListBox()" style="text;strokeColor=none;fillColor=none;align=left;verticalAlign=top;spacingLeft=4;spacingRight=4;overflow=hidden;rotatable=0;points=[[0,0.5],[1,0.5]];portConstraint=eastwest;whiteSpace=wrap;html=1;labelBackgroundColor=none;fontColor=#393C56;fontFamily=Verdana;" parent="YVCR-VSQV84rtF3k8rli-85" vertex="1">
          <mxGeometry y="242" width="418" height="26" as="geometry" />
        </mxCell>
        <mxCell id="YVCR-VSQV84rtF3k8rli-98" value="- UpdateDependenciesCheckedListBox_SelectionIndexChanged()" style="text;strokeColor=none;fillColor=none;align=left;verticalAlign=top;spacingLeft=4;spacingRight=4;overflow=hidden;rotatable=0;points=[[0,0.5],[1,0.5]];portConstraint=eastwest;whiteSpace=wrap;html=1;labelBackgroundColor=none;fontColor=#393C56;fontFamily=Verdana;" parent="YVCR-VSQV84rtF3k8rli-85" vertex="1">
          <mxGeometry y="268" width="418" height="26" as="geometry" />
        </mxCell>
        <mxCell id="YVCR-VSQV84rtF3k8rli-89" value="- CPAButton_Click()" style="text;strokeColor=none;fillColor=none;align=left;verticalAlign=top;spacingLeft=4;spacingRight=4;overflow=hidden;rotatable=0;points=[[0,0.5],[1,0.5]];portConstraint=eastwest;whiteSpace=wrap;html=1;labelBackgroundColor=none;fontColor=#393C56;fontFamily=Verdana;" parent="YVCR-VSQV84rtF3k8rli-85" vertex="1">
          <mxGeometry y="294" width="418" height="26" as="geometry" />
        </mxCell>
        <mxCell id="YVCR-VSQV84rtF3k8rli-90" value="- BackButton_Click()" style="text;strokeColor=none;fillColor=none;align=left;verticalAlign=top;spacingLeft=4;spacingRight=4;overflow=hidden;rotatable=0;points=[[0,0.5],[1,0.5]];portConstraint=eastwest;whiteSpace=wrap;html=1;labelBackgroundColor=none;fontColor=#393C56;fontFamily=Verdana;" parent="YVCR-VSQV84rtF3k8rli-85" vertex="1">
          <mxGeometry y="320" width="418" height="26" as="geometry" />
        </mxCell>
        <mxCell id="YVCR-VSQV84rtF3k8rli-91" value="- ExitButton_Click()" style="text;strokeColor=none;fillColor=none;align=left;verticalAlign=top;spacingLeft=4;spacingRight=4;overflow=hidden;rotatable=0;points=[[0,0.5],[1,0.5]];portConstraint=eastwest;whiteSpace=wrap;html=1;labelBackgroundColor=none;fontColor=#393C56;fontFamily=Verdana;" parent="YVCR-VSQV84rtF3k8rli-85" vertex="1">
          <mxGeometry y="346" width="418" height="26" as="geometry" />
        </mxCell>
        <mxCell id="YVCR-VSQV84rtF3k8rli-136" style="edgeStyle=orthogonalEdgeStyle;rounded=0;orthogonalLoop=1;jettySize=auto;html=1;strokeColor=#E07A5F;fontColor=#393C56;fillColor=#F2CC8F;endArrow=diamondThin;endFill=1;endSize=15;fontFamily=Verdana;" parent="WIyWlLk6GJQsqaUBKTNV-1" source="YVCR-VSQV84rtF3k8rli-100" target="YVCR-VSQV84rtF3k8rli-21" edge="1">
          <mxGeometry relative="1" as="geometry" />
        </mxCell>
        <mxCell id="YVCR-VSQV84rtF3k8rli-100" value="CPAForm" style="swimlane;fontStyle=1;align=center;verticalAlign=top;childLayout=stackLayout;horizontal=1;startSize=26;horizontalStack=0;resizeParent=1;resizeParentMax=0;resizeLast=0;collapsible=1;marginBottom=0;whiteSpace=wrap;html=1;labelBackgroundColor=none;fillColor=#F2CC8F;strokeColor=#E07A5F;fontColor=#393C56;fontFamily=Verdana;" parent="WIyWlLk6GJQsqaUBKTNV-1" vertex="1">
          <mxGeometry x="1084" y="457" width="251" height="294" as="geometry" />
        </mxCell>
        <mxCell id="YVCR-VSQV84rtF3k8rli-101" value="- projectName: string" style="text;strokeColor=none;fillColor=none;align=left;verticalAlign=top;spacingLeft=4;spacingRight=4;overflow=hidden;rotatable=0;points=[[0,0.5],[1,0.5]];portConstraint=eastwest;whiteSpace=wrap;html=1;fontColor=#393C56;fontFamily=Verdana;" parent="YVCR-VSQV84rtF3k8rli-100" vertex="1">
          <mxGeometry y="26" width="251" height="26" as="geometry" />
        </mxCell>
        <mxCell id="YVCR-VSQV84rtF3k8rli-102" value="- username: string" style="text;strokeColor=none;fillColor=none;align=left;verticalAlign=top;spacingLeft=4;spacingRight=4;overflow=hidden;rotatable=0;points=[[0,0.5],[1,0.5]];portConstraint=eastwest;whiteSpace=wrap;html=1;fontColor=#393C56;fontFamily=Verdana;" parent="YVCR-VSQV84rtF3k8rli-100" vertex="1">
          <mxGeometry y="52" width="251" height="26" as="geometry" />
        </mxCell>
        <mxCell id="YVCR-VSQV84rtF3k8rli-116" value="- taskGraph: TaskGraph" style="text;strokeColor=none;fillColor=none;align=left;verticalAlign=top;spacingLeft=4;spacingRight=4;overflow=hidden;rotatable=0;points=[[0,0.5],[1,0.5]];portConstraint=eastwest;whiteSpace=wrap;html=1;fontColor=#393C56;fontFamily=Verdana;" parent="YVCR-VSQV84rtF3k8rli-100" vertex="1">
          <mxGeometry y="78" width="251" height="26" as="geometry" />
        </mxCell>
        <mxCell id="YVCR-VSQV84rtF3k8rli-115" value="- tasks: Dictionary&amp;lt;string, TaskNode&amp;gt;" style="text;strokeColor=none;fillColor=none;align=left;verticalAlign=top;spacingLeft=4;spacingRight=4;overflow=hidden;rotatable=0;points=[[0,0.5],[1,0.5]];portConstraint=eastwest;whiteSpace=wrap;html=1;fontColor=#393C56;fontFamily=Verdana;" parent="YVCR-VSQV84rtF3k8rli-100" vertex="1">
          <mxGeometry y="104" width="251" height="26" as="geometry" />
        </mxCell>
        <mxCell id="YVCR-VSQV84rtF3k8rli-103" value="" style="line;strokeWidth=1;fillColor=none;align=left;verticalAlign=middle;spacingTop=-1;spacingLeft=3;spacingRight=3;rotatable=0;labelPosition=right;points=[];portConstraint=eastwest;strokeColor=#E07A5F;labelBackgroundColor=none;fontColor=#393C56;fontFamily=Verdana;" parent="YVCR-VSQV84rtF3k8rli-100" vertex="1">
          <mxGeometry y="130" width="251" height="8" as="geometry" />
        </mxCell>
        <mxCell id="YVCR-VSQV84rtF3k8rli-104" value="+ CPAForm()" style="text;strokeColor=none;fillColor=none;align=left;verticalAlign=top;spacingLeft=4;spacingRight=4;overflow=hidden;rotatable=0;points=[[0,0.5],[1,0.5]];portConstraint=eastwest;whiteSpace=wrap;html=1;labelBackgroundColor=none;fontColor=#393C56;fontFamily=Verdana;" parent="YVCR-VSQV84rtF3k8rli-100" vertex="1">
          <mxGeometry y="138" width="251" height="26" as="geometry" />
        </mxCell>
        <mxCell id="YVCR-VSQV84rtF3k8rli-105" value="- displayCPAResults()" style="text;strokeColor=none;fillColor=none;align=left;verticalAlign=top;spacingLeft=4;spacingRight=4;overflow=hidden;rotatable=0;points=[[0,0.5],[1,0.5]];portConstraint=eastwest;whiteSpace=wrap;html=1;labelBackgroundColor=none;fontColor=#393C56;fontFamily=Verdana;" parent="YVCR-VSQV84rtF3k8rli-100" vertex="1">
          <mxGeometry y="164" width="251" height="26" as="geometry" />
        </mxCell>
        <mxCell id="YVCR-VSQV84rtF3k8rli-106" value="- displayTasks()" style="text;strokeColor=none;fillColor=none;align=left;verticalAlign=top;spacingLeft=4;spacingRight=4;overflow=hidden;rotatable=0;points=[[0,0.5],[1,0.5]];portConstraint=eastwest;whiteSpace=wrap;html=1;labelBackgroundColor=none;fontColor=#393C56;fontFamily=Verdana;" parent="YVCR-VSQV84rtF3k8rli-100" vertex="1">
          <mxGeometry y="190" width="251" height="26" as="geometry" />
        </mxCell>
        <mxCell id="YVCR-VSQV84rtF3k8rli-112" value="- ScheduleProjectButton_Click()" style="text;strokeColor=none;fillColor=none;align=left;verticalAlign=top;spacingLeft=4;spacingRight=4;overflow=hidden;rotatable=0;points=[[0,0.5],[1,0.5]];portConstraint=eastwest;whiteSpace=wrap;html=1;labelBackgroundColor=none;fontColor=#393C56;fontFamily=Verdana;" parent="YVCR-VSQV84rtF3k8rli-100" vertex="1">
          <mxGeometry y="216" width="251" height="26" as="geometry" />
        </mxCell>
        <mxCell id="YVCR-VSQV84rtF3k8rli-113" value="- BackToEditProjectButton_Click()" style="text;strokeColor=none;fillColor=none;align=left;verticalAlign=top;spacingLeft=4;spacingRight=4;overflow=hidden;rotatable=0;points=[[0,0.5],[1,0.5]];portConstraint=eastwest;whiteSpace=wrap;html=1;labelBackgroundColor=none;fontColor=#393C56;fontFamily=Verdana;" parent="YVCR-VSQV84rtF3k8rli-100" vertex="1">
          <mxGeometry y="242" width="251" height="26" as="geometry" />
        </mxCell>
        <mxCell id="YVCR-VSQV84rtF3k8rli-114" value="- ExitButton_Click()" style="text;strokeColor=none;fillColor=none;align=left;verticalAlign=top;spacingLeft=4;spacingRight=4;overflow=hidden;rotatable=0;points=[[0,0.5],[1,0.5]];portConstraint=eastwest;whiteSpace=wrap;html=1;labelBackgroundColor=none;fontColor=#393C56;fontFamily=Verdana;" parent="YVCR-VSQV84rtF3k8rli-100" vertex="1">
          <mxGeometry y="268" width="251" height="26" as="geometry" />
        </mxCell>
      </root>
    </mxGraphModel>
  </diagram>
  <diagram id="XUCcT-KKnp9GwHqEhvBN" name="HeirarchyChart">
    <mxGraphModel dx="858" dy="946" grid="0" gridSize="10" guides="1" tooltips="1" connect="1" arrows="1" fold="1" page="1" pageScale="1" pageWidth="5000" pageHeight="5000" math="0" shadow="0">
      <root>
        <mxCell id="0" />
        <mxCell id="1" parent="0" />
        <mxCell id="qvSLOX5EAlP2r0DtuCMz-90" style="edgeStyle=orthogonalEdgeStyle;shape=connector;curved=1;rounded=0;orthogonalLoop=1;jettySize=auto;html=1;entryX=0.5;entryY=0;entryDx=0;entryDy=0;labelBackgroundColor=default;strokeColor=default;fontFamily=Verdana;fontSize=11;fontColor=default;endArrow=classic;exitX=0.5;exitY=1;exitDx=0;exitDy=0;" parent="1" source="qvSLOX5EAlP2r0DtuCMz-11" target="qvSLOX5EAlP2r0DtuCMz-35" edge="1">
          <mxGeometry relative="1" as="geometry" />
        </mxCell>
        <mxCell id="qvSLOX5EAlP2r0DtuCMz-11" value="addDependency" style="rounded=1;whiteSpace=wrap;html=1;fillColor=#b0e3e6;strokeColor=#0e8088;fontFamily=Verdana;" parent="1" vertex="1">
          <mxGeometry x="1127" y="1714" width="120" height="60" as="geometry" />
        </mxCell>
        <mxCell id="qvSLOX5EAlP2r0DtuCMz-12" value="createDatabase()" style="rounded=1;whiteSpace=wrap;html=1;fillColor=#b0e3e6;strokeColor=#0e8088;fontFamily=Verdana;" parent="1" vertex="1">
          <mxGeometry x="871" y="799" width="120" height="60" as="geometry" />
        </mxCell>
        <mxCell id="qvSLOX5EAlP2r0DtuCMz-14" value="deleteDependency()" style="rounded=1;whiteSpace=wrap;html=1;fillColor=#b0e3e6;strokeColor=#0e8088;fontFamily=Verdana;" parent="1" vertex="1">
          <mxGeometry x="893" y="1679" width="141" height="60" as="geometry" />
        </mxCell>
        <mxCell id="qvSLOX5EAlP2r0DtuCMz-15" value="successorsList()" style="rounded=1;whiteSpace=wrap;html=1;fillColor=#b0e3e6;strokeColor=#0e8088;fontFamily=Verdana;" parent="1" vertex="1">
          <mxGeometry x="1605" y="1290" width="120" height="60" as="geometry" />
        </mxCell>
        <mxCell id="qvSLOX5EAlP2r0DtuCMz-16" value="predecessorsList()" style="rounded=1;whiteSpace=wrap;html=1;fillColor=#b0e3e6;strokeColor=#0e8088;fontFamily=Verdana;" parent="1" vertex="1">
          <mxGeometry x="1460" y="1285" width="125" height="60" as="geometry" />
        </mxCell>
        <mxCell id="qvSLOX5EAlP2r0DtuCMz-17" value="deleteTask()" style="rounded=1;whiteSpace=wrap;html=1;fillColor=#b0e3e6;strokeColor=#0e8088;fontFamily=Verdana;" parent="1" vertex="1">
          <mxGeometry x="999" y="1464" width="120" height="60" as="geometry" />
        </mxCell>
        <mxCell id="qvSLOX5EAlP2r0DtuCMz-18" value="editTask()" style="rounded=1;whiteSpace=wrap;html=1;fillColor=#b0e3e6;strokeColor=#0e8088;fontFamily=Verdana;" parent="1" vertex="1">
          <mxGeometry x="1108" y="1258" width="120" height="60" as="geometry" />
        </mxCell>
        <mxCell id="qvSLOX5EAlP2r0DtuCMz-19" value="addTask()" style="rounded=1;whiteSpace=wrap;html=1;fillColor=#b0e3e6;strokeColor=#0e8088;fontFamily=Verdana;" parent="1" vertex="1">
          <mxGeometry x="962" y="1123" width="120" height="60" as="geometry" />
        </mxCell>
        <mxCell id="qvSLOX5EAlP2r0DtuCMz-20" value="tasksData()" style="rounded=1;whiteSpace=wrap;html=1;fillColor=#b0e3e6;strokeColor=#0e8088;fontFamily=Verdana;" parent="1" vertex="1">
          <mxGeometry x="738" y="1114" width="120" height="60" as="geometry" />
        </mxCell>
        <mxCell id="qvSLOX5EAlP2r0DtuCMz-23" value="projectNamesList()" style="rounded=1;whiteSpace=wrap;html=1;fillColor=#b0e3e6;strokeColor=#0e8088;fontFamily=Verdana;" parent="1" vertex="1">
          <mxGeometry x="1296" y="1292" width="130" height="60" as="geometry" />
        </mxCell>
        <mxCell id="qvSLOX5EAlP2r0DtuCMz-24" value="deleteProject()" style="rounded=1;whiteSpace=wrap;html=1;fillColor=#b0e3e6;strokeColor=#0e8088;fontFamily=Verdana;" parent="1" vertex="1">
          <mxGeometry x="1759" y="1246" width="120" height="60" as="geometry" />
        </mxCell>
        <mxCell id="qvSLOX5EAlP2r0DtuCMz-60" style="edgeStyle=orthogonalEdgeStyle;shape=connector;curved=1;rounded=0;orthogonalLoop=1;jettySize=auto;html=1;entryX=0.5;entryY=0;entryDx=0;entryDy=0;labelBackgroundColor=default;strokeColor=default;fontFamily=Verdana;fontSize=11;fontColor=default;endArrow=classic;" parent="1" source="qvSLOX5EAlP2r0DtuCMz-25" target="qvSLOX5EAlP2r0DtuCMz-59" edge="1">
          <mxGeometry relative="1" as="geometry" />
        </mxCell>
        <mxCell id="qvSLOX5EAlP2r0DtuCMz-25" value="createProject()" style="rounded=1;whiteSpace=wrap;html=1;fillColor=#b0e3e6;strokeColor=#0e8088;fontFamily=Verdana;" parent="1" vertex="1">
          <mxGeometry x="1678" y="997" width="120" height="60" as="geometry" />
        </mxCell>
        <mxCell id="qvSLOX5EAlP2r0DtuCMz-56" style="edgeStyle=orthogonalEdgeStyle;shape=connector;curved=1;rounded=0;orthogonalLoop=1;jettySize=auto;html=1;entryX=0.5;entryY=0;entryDx=0;entryDy=0;labelBackgroundColor=default;strokeColor=default;fontFamily=Verdana;fontSize=11;fontColor=default;endArrow=classic;" parent="1" source="qvSLOX5EAlP2r0DtuCMz-26" target="qvSLOX5EAlP2r0DtuCMz-55" edge="1">
          <mxGeometry relative="1" as="geometry" />
        </mxCell>
        <mxCell id="qvSLOX5EAlP2r0DtuCMz-26" value="createAccount()" style="rounded=1;whiteSpace=wrap;html=1;fillColor=#b0e3e6;strokeColor=#0e8088;fontFamily=Verdana;" parent="1" vertex="1">
          <mxGeometry x="1279" y="1003" width="120" height="60" as="geometry" />
        </mxCell>
        <mxCell id="qvSLOX5EAlP2r0DtuCMz-52" style="edgeStyle=orthogonalEdgeStyle;shape=connector;curved=1;rounded=0;orthogonalLoop=1;jettySize=auto;html=1;entryX=0.5;entryY=0;entryDx=0;entryDy=0;labelBackgroundColor=default;strokeColor=default;fontFamily=Verdana;fontSize=11;fontColor=default;endArrow=classic;" parent="1" source="qvSLOX5EAlP2r0DtuCMz-27" target="qvSLOX5EAlP2r0DtuCMz-41" edge="1">
          <mxGeometry relative="1" as="geometry" />
        </mxCell>
        <mxCell id="qvSLOX5EAlP2r0DtuCMz-27" value="isValidAccount()" style="rounded=1;whiteSpace=wrap;html=1;fillColor=#b0e3e6;strokeColor=#0e8088;fontFamily=Verdana;" parent="1" vertex="1">
          <mxGeometry x="1420" y="696" width="120" height="60" as="geometry" />
        </mxCell>
        <mxCell id="qvSLOX5EAlP2r0DtuCMz-31" value="isValidDatabaseName()" style="rounded=1;whiteSpace=wrap;html=1;fillColor=#b0e3e6;strokeColor=#0e8088;fontFamily=Verdana;" parent="1" vertex="1">
          <mxGeometry x="871" y="995" width="154" height="60" as="geometry" />
        </mxCell>
        <mxCell id="qvSLOX5EAlP2r0DtuCMz-50" style="edgeStyle=orthogonalEdgeStyle;shape=connector;curved=1;rounded=0;orthogonalLoop=1;jettySize=auto;html=1;entryX=0.5;entryY=0;entryDx=0;entryDy=0;labelBackgroundColor=default;strokeColor=default;fontFamily=Verdana;fontSize=11;fontColor=default;endArrow=classic;" parent="1" source="qvSLOX5EAlP2r0DtuCMz-32" target="qvSLOX5EAlP2r0DtuCMz-12" edge="1">
          <mxGeometry relative="1" as="geometry" />
        </mxCell>
        <mxCell id="qvSLOX5EAlP2r0DtuCMz-32" value="checkUserAccountsDatabaseExists()" style="rounded=1;whiteSpace=wrap;html=1;fillColor=#b0e3e6;strokeColor=#0e8088;fontFamily=Verdana;" parent="1" vertex="1">
          <mxGeometry x="822" y="655" width="231" height="60" as="geometry" />
        </mxCell>
        <mxCell id="qvSLOX5EAlP2r0DtuCMz-33" value="tasksDict()" style="rounded=1;whiteSpace=wrap;html=1;fillColor=#b0e3e6;strokeColor=#0e8088;fontFamily=Verdana;" parent="1" vertex="1">
          <mxGeometry x="1605" y="1676" width="120" height="60" as="geometry" />
        </mxCell>
        <mxCell id="qvSLOX5EAlP2r0DtuCMz-34" value="dfsCycle()" style="rounded=1;whiteSpace=wrap;html=1;fillColor=#b0e3e6;strokeColor=#0e8088;fontFamily=Verdana;" parent="1" vertex="1">
          <mxGeometry x="1247" y="1993" width="120" height="60" as="geometry" />
        </mxCell>
        <mxCell id="O2B7LhDYxQFJU5-zveSH-4" style="edgeStyle=orthogonalEdgeStyle;shape=connector;curved=1;rounded=0;orthogonalLoop=1;jettySize=auto;html=1;labelBackgroundColor=default;strokeColor=default;fontFamily=Verdana;fontSize=11;fontColor=default;endArrow=classic;exitX=0.5;exitY=1;exitDx=0;exitDy=0;" parent="1" source="qvSLOX5EAlP2r0DtuCMz-35" target="O2B7LhDYxQFJU5-zveSH-2" edge="1">
          <mxGeometry relative="1" as="geometry" />
        </mxCell>
        <mxCell id="O2B7LhDYxQFJU5-zveSH-7" style="edgeStyle=orthogonalEdgeStyle;shape=connector;curved=1;rounded=0;orthogonalLoop=1;jettySize=auto;html=1;labelBackgroundColor=default;strokeColor=default;fontFamily=Verdana;fontSize=11;fontColor=default;endArrow=classic;exitX=0.5;exitY=1;exitDx=0;exitDy=0;" parent="1" source="qvSLOX5EAlP2r0DtuCMz-35" target="qvSLOX5EAlP2r0DtuCMz-34" edge="1">
          <mxGeometry relative="1" as="geometry" />
        </mxCell>
        <mxCell id="qvSLOX5EAlP2r0DtuCMz-35" value="dependenciesCycle()" style="rounded=1;whiteSpace=wrap;html=1;fillColor=#b0e3e6;strokeColor=#0e8088;fontFamily=Verdana;" parent="1" vertex="1">
          <mxGeometry x="1127" y="1840" width="146" height="60" as="geometry" />
        </mxCell>
        <mxCell id="qvSLOX5EAlP2r0DtuCMz-41" value="djb2" style="rounded=1;whiteSpace=wrap;html=1;fillColor=#d5e8d4;strokeColor=#82b366;fontFamily=Verdana;" parent="1" vertex="1">
          <mxGeometry x="1420" y="830" width="120" height="60" as="geometry" />
        </mxCell>
        <mxCell id="qvSLOX5EAlP2r0DtuCMz-55" value="djb2" style="rounded=1;whiteSpace=wrap;html=1;fillColor=#d5e8d4;strokeColor=#82b366;fontFamily=Verdana;" parent="1" vertex="1">
          <mxGeometry x="1279" y="1128" width="120" height="60" as="geometry" />
        </mxCell>
        <mxCell id="qvSLOX5EAlP2r0DtuCMz-59" value="createDatabase()" style="rounded=1;whiteSpace=wrap;html=1;fillColor=#b0e3e6;strokeColor=#0e8088;fontFamily=Verdana;" parent="1" vertex="1">
          <mxGeometry x="1678" y="1105" width="120" height="60" as="geometry" />
        </mxCell>
        <mxCell id="O2B7LhDYxQFJU5-zveSH-2" value="executeStringListQuery()" style="rounded=1;whiteSpace=wrap;html=1;fillColor=#b0e3e6;strokeColor=#0e8088;fontFamily=Verdana;" parent="1" vertex="1">
          <mxGeometry x="991" y="1993" width="169" height="60" as="geometry" />
        </mxCell>
        <mxCell id="st9cTMAN1nXs5QawdRtT-3" value="" style="group;movable=1;resizable=1;rotatable=1;deletable=1;editable=1;locked=0;connectable=1;fontFamily=Verdana;" vertex="1" connectable="0" parent="1">
          <mxGeometry x="1905" y="746" width="477" height="210" as="geometry" />
        </mxCell>
        <mxCell id="st9cTMAN1nXs5QawdRtT-2" value="" style="rounded=0;whiteSpace=wrap;html=1;fillColor=none;movable=1;resizable=1;rotatable=1;deletable=1;editable=1;locked=0;connectable=1;fontFamily=Verdana;" vertex="1" parent="st9cTMAN1nXs5QawdRtT-3">
          <mxGeometry width="455" height="210" as="geometry" />
        </mxCell>
        <mxCell id="qvSLOX5EAlP2r0DtuCMz-66" value="executeStringListQuery()" style="rounded=1;whiteSpace=wrap;html=1;fillColor=#b0e3e6;strokeColor=#0e8088;movable=1;resizable=1;rotatable=1;deletable=1;editable=1;locked=0;connectable=1;" parent="st9cTMAN1nXs5QawdRtT-3" vertex="1">
          <mxGeometry x="290" y="76.27" width="143" height="62.69" as="geometry" />
        </mxCell>
        <mxCell id="qvSLOX5EAlP2r0DtuCMz-87" value="executeNonQuery()" style="rounded=1;whiteSpace=wrap;html=1;fillColor=#b0e3e6;strokeColor=#0e8088;movable=0;resizable=0;rotatable=0;deletable=0;editable=0;locked=1;connectable=0;" parent="st9cTMAN1nXs5QawdRtT-3" vertex="1">
          <mxGeometry x="27" y="76.26865671641794" width="120" height="62.68656716417911" as="geometry" />
        </mxCell>
        <mxCell id="O2B7LhDYxQFJU5-zveSH-5" value="executeQuery()" style="rounded=1;whiteSpace=wrap;html=1;fillColor=#b0e3e6;strokeColor=#0e8088;movable=0;resizable=0;rotatable=0;deletable=0;editable=0;locked=1;connectable=0;" parent="st9cTMAN1nXs5QawdRtT-3" vertex="1">
          <mxGeometry x="159" y="76.26671641791046" width="120" height="62.68656716417911" as="geometry" />
        </mxCell>
        <mxCell id="st9cTMAN1nXs5QawdRtT-1" value="SQL Functions" style="text;html=1;strokeColor=none;fillColor=none;align=center;verticalAlign=middle;whiteSpace=wrap;rounded=0;movable=0;resizable=0;rotatable=0;deletable=0;editable=0;locked=1;connectable=0;" vertex="1" parent="st9cTMAN1nXs5QawdRtT-3">
          <mxGeometry x="159" y="14" width="131" height="43.46" as="geometry" />
        </mxCell>
        <mxCell id="ZCBVm8cY5vtrvxWEs_-0-4" value="" style="group;movable=0;resizable=0;rotatable=0;deletable=0;editable=0;locked=1;connectable=0;" vertex="1" connectable="0" parent="1">
          <mxGeometry x="252" y="190" width="180" height="813" as="geometry" />
        </mxCell>
        <mxCell id="ZCBVm8cY5vtrvxWEs_-0-2" value="" style="rounded=0;whiteSpace=wrap;html=1;fontFamily=Verdana;fontSize=12;fillColor=none;movable=0;resizable=0;rotatable=0;deletable=0;editable=0;locked=1;connectable=0;" vertex="1" parent="ZCBVm8cY5vtrvxWEs_-0-4">
          <mxGeometry width="180" height="813" as="geometry" />
        </mxCell>
        <mxCell id="qvSLOX5EAlP2r0DtuCMz-2" value="DatabaseFunctions" style="rounded=1;whiteSpace=wrap;html=1;fillColor=#b0e3e6;strokeColor=#0e8088;fontFamily=Verdana;movable=0;resizable=0;rotatable=0;deletable=0;editable=0;locked=1;connectable=0;" parent="ZCBVm8cY5vtrvxWEs_-0-4" vertex="1">
          <mxGeometry x="28" y="66" width="127" height="60" as="geometry" />
        </mxCell>
        <mxCell id="qvSLOX5EAlP2r0DtuCMz-3" value="CreateNewProjectForm" style="rounded=1;whiteSpace=wrap;html=1;fillColor=#fff2cc;strokeColor=#d6b656;fontFamily=Verdana;movable=0;resizable=0;rotatable=0;deletable=0;editable=0;locked=1;connectable=0;" parent="ZCBVm8cY5vtrvxWEs_-0-4" vertex="1">
          <mxGeometry x="18.5" y="316" width="143.5" height="60" as="geometry" />
        </mxCell>
        <mxCell id="qvSLOX5EAlP2r0DtuCMz-4" value="LoginForm" style="rounded=1;whiteSpace=wrap;html=1;fillColor=#f5f5f5;fontColor=#333333;strokeColor=#666666;fontFamily=Verdana;movable=0;resizable=0;rotatable=0;deletable=0;editable=0;locked=1;connectable=0;" parent="ZCBVm8cY5vtrvxWEs_-0-4" vertex="1">
          <mxGeometry x="31" y="232" width="120" height="60" as="geometry" />
        </mxCell>
        <mxCell id="qvSLOX5EAlP2r0DtuCMz-5" value="EditProjectForm" style="rounded=1;whiteSpace=wrap;html=1;fillColor=#e1d5e7;strokeColor=#9673a6;fontFamily=Verdana;movable=0;resizable=0;rotatable=0;deletable=0;editable=0;locked=1;connectable=0;" parent="ZCBVm8cY5vtrvxWEs_-0-4" vertex="1">
          <mxGeometry x="31" y="478" width="120" height="60" as="geometry" />
        </mxCell>
        <mxCell id="qvSLOX5EAlP2r0DtuCMz-6" value="LoadProjectForm" style="rounded=1;whiteSpace=wrap;html=1;fillColor=#f8cecc;strokeColor=#b85450;fontFamily=Verdana;movable=0;resizable=0;rotatable=0;deletable=0;editable=0;locked=1;connectable=0;" parent="ZCBVm8cY5vtrvxWEs_-0-4" vertex="1">
          <mxGeometry x="31" y="401" width="120" height="60" as="geometry" />
        </mxCell>
        <mxCell id="qvSLOX5EAlP2r0DtuCMz-7" value="CPAForm" style="rounded=1;whiteSpace=wrap;html=1;fillColor=#fad7ac;strokeColor=#b46504;fontFamily=Verdana;movable=0;resizable=0;rotatable=0;deletable=0;editable=0;locked=1;connectable=0;" parent="ZCBVm8cY5vtrvxWEs_-0-4" vertex="1">
          <mxGeometry x="31.5" y="554" width="120" height="60" as="geometry" />
        </mxCell>
        <mxCell id="qvSLOX5EAlP2r0DtuCMz-8" value="TaskNode" style="rounded=1;whiteSpace=wrap;html=1;fillColor=#bac8d3;strokeColor=#23445d;fontFamily=Verdana;movable=0;resizable=0;rotatable=0;deletable=0;editable=0;locked=1;connectable=0;" parent="ZCBVm8cY5vtrvxWEs_-0-4" vertex="1">
          <mxGeometry x="31" y="724" width="120" height="60" as="geometry" />
        </mxCell>
        <mxCell id="qvSLOX5EAlP2r0DtuCMz-9" value="TaskGraph" style="rounded=1;whiteSpace=wrap;html=1;fillColor=#dae8fc;strokeColor=#6c8ebf;fontFamily=Verdana;movable=0;resizable=0;rotatable=0;deletable=0;editable=0;locked=1;connectable=0;" parent="ZCBVm8cY5vtrvxWEs_-0-4" vertex="1">
          <mxGeometry x="31" y="639" width="120" height="60" as="geometry" />
        </mxCell>
        <mxCell id="qvSLOX5EAlP2r0DtuCMz-10" value="djb2HashFunction" style="rounded=1;whiteSpace=wrap;html=1;fillColor=#d5e8d4;strokeColor=#82b366;fontFamily=Verdana;movable=0;resizable=0;rotatable=0;deletable=0;editable=0;locked=1;connectable=0;" parent="ZCBVm8cY5vtrvxWEs_-0-4" vertex="1">
          <mxGeometry x="31" y="149" width="121" height="60" as="geometry" />
        </mxCell>
        <mxCell id="ZCBVm8cY5vtrvxWEs_-0-3" value="Class Key" style="text;html=1;strokeColor=none;fillColor=none;align=center;verticalAlign=middle;whiteSpace=wrap;rounded=0;fontSize=12;fontFamily=Verdana;fontColor=default;movable=0;resizable=0;rotatable=0;deletable=0;editable=0;locked=1;connectable=0;" vertex="1" parent="ZCBVm8cY5vtrvxWEs_-0-4">
          <mxGeometry x="48" y="17" width="83" height="30" as="geometry" />
        </mxCell>
      </root>
    </mxGraphModel>
  </diagram>
</mxfile>
